<?xml version="1.0" encoding="UTF-8"?>
<svg id="Layer_2" data-name="Layer 2" xmlns="http://www.w3.org/2000/svg" viewBox="0 0 197.76 63.26">
  <g id="Layer_1-2" data-name="Layer 1">
    <g>
      <path d="M41.49,63.26c-1.04-1.25-2.35-2.58-3.95-3.99-1.59-1.41-3.42-2.81-5.48-4.21-2.06-1.4-4.32-2.75-6.78-4.07-2.46-1.31-5.06-2.51-7.79-3.59-2.74-1.08-5.58-1.99-8.53-2.75-2.95-.76-5.94-1.27-8.97-1.54l.8-9.81c1.09.11,2.24.23,3.45.38,1.21.15,2.42.31,3.65.48,1.22.17,2.41.36,3.57.56,1.16.2,2.24.41,3.25.62,1.75,0,3.5-.23,5.24-.7,1.74-.46,3.31-1.13,4.72-1.99,1.41-.86,2.55-1.92,3.43-3.17s1.32-2.67,1.32-4.27c0-1.46-.37-2.62-1.12-3.49-.74-.86-1.72-1.56-2.93-2.09-1.21-.53-2.59-.94-4.15-1.22-1.55-.28-3.15-.56-4.78-.84-1.63-.28-3.23-.61-4.78-1-1.55-.38-2.94-.93-4.15-1.63-1.21-.7-2.19-1.63-2.93-2.79-.74-1.16-1.12-2.65-1.12-4.48,0-1.22.17-2.31.52-3.25.34-.94.82-1.75,1.44-2.41.61-.66,1.33-1.17,2.17-1.51.84-.35,1.76-.52,2.77-.52s1.88.15,2.69.46c.81.31,1.51.71,2.11,1.22.6.51,1.06,1.08,1.4,1.71.33.64.5,1.29.5,1.95s-.15,1.28-.44,1.91c-.29.64-.7,1.2-1.24,1.67v.24c1.89.27,3.8.57,5.74.92,1.94.35,3.81.78,5.62,1.3,1.81.52,3.49,1.16,5.06,1.93,1.57.77,2.94,1.73,4.11,2.87,1.17,1.14,2.09,2.49,2.77,4.05.68,1.55,1.02,3.38,1.02,5.48,0,1.89-.29,3.61-.86,5.18-.57,1.57-1.38,2.97-2.41,4.21-1.04,1.24-2.29,2.3-3.77,3.19-1.48.89-3.13,1.59-4.96,2.09v.24c1.57.66,3.24,1.51,5.02,2.55,1.78,1.04,3.56,2.24,5.34,3.61,1.78,1.37,3.53,2.89,5.24,4.56,1.71,1.67,3.29,3.47,4.72,5.38l-6.54,6.54Z"/>
      <path d="M70.28,52.77c-3.06,0-5.77-.58-8.15-1.73-2.38-1.16-4.38-2.7-6.02-4.62s-2.88-4.15-3.75-6.68c-.86-2.52-1.3-5.14-1.3-7.85,0-3.14.55-6.05,1.65-8.75,1.1-2.7,2.62-5.03,4.54-7,1.93-1.97,4.2-3.51,6.82-4.64,2.62-1.13,5.45-1.69,8.51-1.69s5.8.56,8.23,1.67c2.43,1.12,4.5,2.62,6.2,4.5,1.7,1.89,3,4.07,3.89,6.56.89,2.48,1.33,5.1,1.33,7.83,0,3.16-.58,6.11-1.73,8.85-1.16,2.74-2.72,5.11-4.7,7.12-1.98,2.01-4.3,3.58-6.98,4.72s-5.52,1.71-8.55,1.71ZM82.35,30.77c0-1.38-.22-2.78-.66-4.21-.44-1.42-1.1-2.7-1.97-3.85-.88-1.14-1.97-2.08-3.27-2.81-1.3-.73-2.8-1.1-4.5-1.1-1.81,0-3.39.4-4.76,1.2-1.37.8-2.52,1.82-3.45,3.07-.93,1.25-1.63,2.64-2.11,4.19-.48,1.54-.72,3.06-.72,4.54s.23,2.96.7,4.35c.46,1.38,1.14,2.61,2.01,3.69.88,1.08,1.94,1.93,3.19,2.57,1.25.64,2.66.96,4.23.96s3.13-.35,4.52-1.06,2.59-1.65,3.59-2.83,1.78-2.53,2.35-4.05c.57-1.51.86-3.07.86-4.66Z"/>
      <path d="M137.96,63.26c-1.04-1.25-2.35-2.58-3.95-3.99-1.59-1.41-3.42-2.81-5.48-4.21-2.06-1.4-4.32-2.75-6.78-4.07-2.46-1.31-5.06-2.51-7.79-3.59-2.74-1.08-5.58-1.99-8.53-2.75-2.95-.76-5.94-1.27-8.97-1.54l.8-9.81c1.09.11,2.24.23,3.45.38,1.21.15,2.42.31,3.65.48,1.22.17,2.41.36,3.57.56,1.16.2,2.24.41,3.25.62,1.75,0,3.5-.23,5.24-.7,1.74-.46,3.31-1.13,4.72-1.99,1.41-.86,2.55-1.92,3.43-3.17s1.32-2.67,1.32-4.27c0-1.46-.37-2.62-1.12-3.49-.74-.86-1.72-1.56-2.93-2.09-1.21-.53-2.59-.94-4.15-1.22-1.55-.28-3.15-.56-4.78-.84-1.63-.28-3.23-.61-4.78-1-1.55-.38-2.94-.93-4.15-1.63-1.21-.7-2.19-1.63-2.93-2.79-.74-1.16-1.12-2.65-1.12-4.48,0-1.22.17-2.31.52-3.25.34-.94.82-1.75,1.43-2.41.61-.66,1.33-1.17,2.17-1.51.84-.35,1.76-.52,2.77-.52s1.88.15,2.69.46c.81.31,1.51.71,2.11,1.22.6.51,1.06,1.08,1.4,1.71.33.64.5,1.29.5,1.95s-.15,1.28-.44,1.91c-.29.64-.7,1.2-1.24,1.67v.24c1.89.27,3.8.57,5.74.92,1.94.35,3.81.78,5.62,1.3,1.81.52,3.49,1.16,5.06,1.93,1.57.77,2.94,1.73,4.11,2.87,1.17,1.14,2.09,2.49,2.77,4.05.68,1.55,1.02,3.38,1.02,5.48,0,1.89-.29,3.61-.86,5.18-.57,1.57-1.38,2.97-2.41,4.21-1.04,1.24-2.29,2.3-3.77,3.19-1.47.89-3.13,1.59-4.96,2.09v.24c1.57.66,3.24,1.51,5.02,2.55s3.56,2.24,5.34,3.61c1.78,1.37,3.53,2.89,5.24,4.56,1.71,1.67,3.29,3.47,4.72,5.38l-6.54,6.54Z"/>
      <path d="M180.22,4.03c-.58.98-1.01,1.97-1.28,2.97s-.4,1.97-.4,2.93c0,1.2.2,2.33.6,3.39.4,1.06.95,1.99,1.65,2.79.7.8,1.55,1.43,2.53,1.89.98.47,2.06.7,3.23.7.74,0,1.51-.1,2.31-.3.8-.2,1.62-.52,2.47-.98l6.42,3.23v.24c-1.36.96-2.8,1.91-4.34,2.85-1.54.94-3.08,1.91-4.6,2.91-1.53,1-3,2.03-4.4,3.09-1.41,1.06-2.65,2.17-3.73,3.33-1.08,1.16-1.94,2.36-2.59,3.63-.65,1.26-.98,2.61-.98,4.05,0,.96.15,1.85.46,2.69.3.84.73,1.55,1.28,2.15.54.6,1.2,1.07,1.95,1.41.76.35,1.59.52,2.49.52l6.22,6.58v.24c-2.98,1.51-5.86,2.6-8.65,3.27-2.79.67-5.47,1-8.05,1-3.72,0-7.13-.6-10.22-1.79-3.1-1.2-5.76-2.8-7.99-4.82-2.23-2.02-3.97-4.36-5.2-7.04-1.24-2.67-1.85-5.47-1.85-8.39,0-2.74.57-5.67,1.71-8.81,1.14-3.14,2.82-6.29,5.04-9.47,2.22-3.18,4.96-6.28,8.23-9.33,3.27-3.04,7.04-5.84,11.32-8.39l6.38,3.23v.24ZM157.66,35.36c0,1.73.28,3.31.84,4.74.56,1.44,1.33,2.69,2.33,3.77,1,1.08,2.17,1.95,3.53,2.63,1.35.68,2.84,1.12,4.46,1.34-.72-1.25-1.24-2.49-1.57-3.73-.33-1.24-.5-2.46-.5-3.69,0-1.51.23-3,.7-4.44.46-1.45,1.11-2.84,1.93-4.17.82-1.33,1.81-2.57,2.95-3.73,1.14-1.16,2.39-2.21,3.75-3.17-.74-.4-1.47-.88-2.17-1.45-.7-.57-1.32-1.2-1.85-1.87-.53-.68-.96-1.41-1.3-2.19-.33-.78-.5-1.6-.5-2.45,0-.37.04-.76.12-1.16-1.99,1.62-3.77,3.22-5.34,4.8-1.57,1.58-2.9,3.18-4.01,4.78-1.1,1.61-1.94,3.24-2.51,4.88-.57,1.65-.86,3.35-.86,5.1Z"/>
    </g>
  </g>
</svg>